<mxfile host="Electron" agent="Mozilla/5.0 (Macintosh; Intel Mac OS X 10_15_7) AppleWebKit/537.36 (KHTML, like Gecko) draw.io/28.1.2 Chrome/138.0.7204.243 Electron/37.4.0 Safari/537.36" version="28.1.2">
  <diagram name="Page-1" id="QYhJjqDgdkDJ0zRF2sz8">
    <mxGraphModel dx="1129" dy="731" grid="1" gridSize="10" guides="1" tooltips="1" connect="1" arrows="1" fold="1" page="1" pageScale="1" pageWidth="850" pageHeight="1100" math="0" shadow="0">
      <root>
        <mxCell id="0" />
        <mxCell id="1" parent="0" />
        <mxCell id="IfRw2rBlF7nEJuuqFulb-1" value="//This program will ask the user to input 10 numbers. It will then calculate the sum of all the numbers" style="text;html=1;align=center;verticalAlign=middle;whiteSpace=wrap;rounded=0;" vertex="1" parent="1">
          <mxGeometry x="60" y="40" width="230" height="30" as="geometry" />
        </mxCell>
        <mxCell id="IfRw2rBlF7nEJuuqFulb-4" style="edgeStyle=orthogonalEdgeStyle;rounded=0;orthogonalLoop=1;jettySize=auto;html=1;exitX=0.5;exitY=1;exitDx=0;exitDy=0;entryX=0.5;entryY=0;entryDx=0;entryDy=0;" edge="1" parent="1" source="IfRw2rBlF7nEJuuqFulb-2" target="IfRw2rBlF7nEJuuqFulb-3">
          <mxGeometry relative="1" as="geometry" />
        </mxCell>
        <mxCell id="IfRw2rBlF7nEJuuqFulb-2" value="Start" style="ellipse;whiteSpace=wrap;html=1;" vertex="1" parent="1">
          <mxGeometry x="115" y="110" width="120" height="80" as="geometry" />
        </mxCell>
        <mxCell id="IfRw2rBlF7nEJuuqFulb-6" style="edgeStyle=orthogonalEdgeStyle;rounded=0;orthogonalLoop=1;jettySize=auto;html=1;exitX=0.5;exitY=1;exitDx=0;exitDy=0;entryX=0.5;entryY=0;entryDx=0;entryDy=0;" edge="1" parent="1" source="IfRw2rBlF7nEJuuqFulb-3" target="IfRw2rBlF7nEJuuqFulb-5">
          <mxGeometry relative="1" as="geometry" />
        </mxCell>
        <mxCell id="IfRw2rBlF7nEJuuqFulb-3" value="Declarations&lt;div&gt;num counter = 0&lt;/div&gt;&lt;div&gt;num sum = 0&lt;/div&gt;&lt;div&gt;num inputNumber = 0&lt;/div&gt;" style="rounded=0;whiteSpace=wrap;html=1;" vertex="1" parent="1">
          <mxGeometry x="115" y="240" width="120" height="60" as="geometry" />
        </mxCell>
        <mxCell id="IfRw2rBlF7nEJuuqFulb-8" style="edgeStyle=orthogonalEdgeStyle;rounded=0;orthogonalLoop=1;jettySize=auto;html=1;exitX=1;exitY=0.5;exitDx=0;exitDy=0;" edge="1" parent="1" source="IfRw2rBlF7nEJuuqFulb-5" target="IfRw2rBlF7nEJuuqFulb-7">
          <mxGeometry relative="1" as="geometry" />
        </mxCell>
        <mxCell id="IfRw2rBlF7nEJuuqFulb-14" value="Yes" style="edgeLabel;html=1;align=center;verticalAlign=middle;resizable=0;points=[];" vertex="1" connectable="0" parent="IfRw2rBlF7nEJuuqFulb-8">
          <mxGeometry x="-0.4667" y="3" relative="1" as="geometry">
            <mxPoint x="-1" y="-2" as="offset" />
          </mxGeometry>
        </mxCell>
        <mxCell id="IfRw2rBlF7nEJuuqFulb-16" style="edgeStyle=orthogonalEdgeStyle;rounded=0;orthogonalLoop=1;jettySize=auto;html=1;exitX=0.5;exitY=1;exitDx=0;exitDy=0;entryX=0.5;entryY=0;entryDx=0;entryDy=0;" edge="1" parent="1" source="IfRw2rBlF7nEJuuqFulb-5" target="IfRw2rBlF7nEJuuqFulb-15">
          <mxGeometry relative="1" as="geometry" />
        </mxCell>
        <mxCell id="IfRw2rBlF7nEJuuqFulb-19" value="No" style="edgeLabel;html=1;align=center;verticalAlign=middle;resizable=0;points=[];" vertex="1" connectable="0" parent="IfRw2rBlF7nEJuuqFulb-16">
          <mxGeometry x="-0.425" y="-1" relative="1" as="geometry">
            <mxPoint x="6" as="offset" />
          </mxGeometry>
        </mxCell>
        <mxCell id="IfRw2rBlF7nEJuuqFulb-20" value="" style="edgeStyle=orthogonalEdgeStyle;rounded=0;orthogonalLoop=1;jettySize=auto;html=1;" edge="1" parent="1" source="IfRw2rBlF7nEJuuqFulb-5" target="IfRw2rBlF7nEJuuqFulb-7">
          <mxGeometry relative="1" as="geometry" />
        </mxCell>
        <mxCell id="IfRw2rBlF7nEJuuqFulb-5" value="counter &amp;lt; 10?" style="rhombus;whiteSpace=wrap;html=1;" vertex="1" parent="1">
          <mxGeometry x="130" y="350" width="90" height="90" as="geometry" />
        </mxCell>
        <mxCell id="IfRw2rBlF7nEJuuqFulb-11" style="edgeStyle=orthogonalEdgeStyle;rounded=0;orthogonalLoop=1;jettySize=auto;html=1;exitX=1;exitY=0.5;exitDx=0;exitDy=0;entryX=0;entryY=0.5;entryDx=0;entryDy=0;" edge="1" parent="1" source="IfRw2rBlF7nEJuuqFulb-7" target="IfRw2rBlF7nEJuuqFulb-9">
          <mxGeometry relative="1" as="geometry" />
        </mxCell>
        <mxCell id="IfRw2rBlF7nEJuuqFulb-7" value="Output(&quot;Please enter a number:&quot;)&lt;div&gt;Input inputNumber&lt;/div&gt;" style="shape=parallelogram;perimeter=parallelogramPerimeter;whiteSpace=wrap;html=1;fixedSize=1;" vertex="1" parent="1">
          <mxGeometry x="270" y="365" width="170" height="60" as="geometry" />
        </mxCell>
        <mxCell id="IfRw2rBlF7nEJuuqFulb-12" style="edgeStyle=orthogonalEdgeStyle;rounded=0;orthogonalLoop=1;jettySize=auto;html=1;exitX=1;exitY=0.5;exitDx=0;exitDy=0;entryX=0;entryY=0.5;entryDx=0;entryDy=0;" edge="1" parent="1" source="IfRw2rBlF7nEJuuqFulb-9" target="IfRw2rBlF7nEJuuqFulb-10">
          <mxGeometry relative="1" as="geometry" />
        </mxCell>
        <mxCell id="IfRw2rBlF7nEJuuqFulb-9" value="sum = inputNumber + sum" style="rounded=0;whiteSpace=wrap;html=1;" vertex="1" parent="1">
          <mxGeometry x="480" y="365" width="150" height="60" as="geometry" />
        </mxCell>
        <mxCell id="IfRw2rBlF7nEJuuqFulb-13" style="edgeStyle=orthogonalEdgeStyle;rounded=0;orthogonalLoop=1;jettySize=auto;html=1;exitX=1;exitY=0.5;exitDx=0;exitDy=0;" edge="1" parent="1" source="IfRw2rBlF7nEJuuqFulb-10">
          <mxGeometry relative="1" as="geometry">
            <mxPoint x="180" y="338" as="targetPoint" />
            <Array as="points">
              <mxPoint x="810" y="395" />
              <mxPoint x="810" y="338" />
              <mxPoint x="180" y="338" />
            </Array>
          </mxGeometry>
        </mxCell>
        <mxCell id="IfRw2rBlF7nEJuuqFulb-10" value="counter = counter + 1" style="rounded=0;whiteSpace=wrap;html=1;" vertex="1" parent="1">
          <mxGeometry x="670" y="365" width="120" height="60" as="geometry" />
        </mxCell>
        <mxCell id="IfRw2rBlF7nEJuuqFulb-18" style="edgeStyle=orthogonalEdgeStyle;rounded=0;orthogonalLoop=1;jettySize=auto;html=1;exitX=0.5;exitY=1;exitDx=0;exitDy=0;entryX=0.5;entryY=0;entryDx=0;entryDy=0;" edge="1" parent="1" source="IfRw2rBlF7nEJuuqFulb-15" target="IfRw2rBlF7nEJuuqFulb-17">
          <mxGeometry relative="1" as="geometry" />
        </mxCell>
        <mxCell id="IfRw2rBlF7nEJuuqFulb-15" value="Output(&quot;The sum of those numbers is: &quot;, sum)" style="shape=parallelogram;perimeter=parallelogramPerimeter;whiteSpace=wrap;html=1;fixedSize=1;" vertex="1" parent="1">
          <mxGeometry x="90" y="480" width="170" height="60" as="geometry" />
        </mxCell>
        <mxCell id="IfRw2rBlF7nEJuuqFulb-17" value="End" style="ellipse;whiteSpace=wrap;html=1;" vertex="1" parent="1">
          <mxGeometry x="115" y="590" width="120" height="80" as="geometry" />
        </mxCell>
      </root>
    </mxGraphModel>
  </diagram>
</mxfile>
